<svg width="26" height="26" viewBox="0 0 26 26" fill="none" xmlns="http://www.w3.org/2000/svg">
<path fill-rule="evenodd" clip-rule="evenodd" d="M26 13C26 20.1797 20.1797 26 13 26C5.8203 26 0 20.1797 0 13C0 5.8203 5.8203 0 13 0C20.1797 0 26 5.8203 26 13ZM20.7391 12.9801C20.7069 10.7158 19.9282 8.77537 18.3973 7.16802C18.3712 7.14074 18.3461 7.1113 18.3208 7.08162C18.3036 7.06144 18.2863 7.04114 18.2685 7.02135C17.7358 6.41935 16.843 6.30935 16.2019 6.77077C15.5462 7.24136 15.3208 8.11837 15.6896 8.84871C15.7775 9.02594 15.9092 9.1879 16.0468 9.32541C17.3933 10.6883 17.9202 12.3231 17.446 14.233C16.9922 16.0573 15.8389 17.2521 14.1236 17.7961C12.458 18.3217 10.9037 17.9916 9.55128 16.8549C8.39211 15.8831 7.79789 14.5814 7.7774 13.026C7.75983 11.7975 8.16964 10.7127 8.93365 9.77767C8.98681 9.71207 9.05063 9.65573 9.11434 9.59948C9.16638 9.55353 9.21836 9.50764 9.26442 9.45681C9.69472 8.99233 9.81181 8.43923 9.62739 7.83418C9.43712 7.22303 9.00975 6.85633 8.40675 6.7341C7.93547 6.63937 7.51102 6.76771 7.13049 7.07329C6.46308 7.605 6.00936 8.31394 5.60834 9.06261C4.91166 10.3644 4.59845 11.77 4.64821 13.2582C4.70676 15.0734 5.28342 16.6929 6.36941 18.1108C7.39686 19.4492 8.69069 20.3996 10.2626 20.8794C12.9176 21.6922 15.394 21.2644 17.6187 19.5226C19.0647 18.3919 20.0131 16.8885 20.4815 15.0672C20.66 14.3858 20.7361 13.6891 20.7391 12.9801ZM14.2707 7.003C14.2703 7.28753 14.2699 7.59855 14.2699 8.00531C14.2699 9.11457 14.2699 9.49202 14.2758 10.6013C14.2758 10.7235 14.2729 10.8457 14.2495 10.9649C14.0855 11.8022 13.3479 12.3584 12.5224 12.2728C11.7262 12.1934 11.1144 11.4966 11.1115 10.6563C11.1056 8.39499 11.1056 7.60036 11.1115 5.33906C11.1115 4.73707 11.3837 4.26953 11.8726 3.96395C12.3819 3.64309 12.9264 3.63087 13.4474 3.93034C13.9802 4.23592 14.267 4.72179 14.2699 5.36351C14.2718 6.08128 14.2713 6.50091 14.2707 7.003Z" fill="white"/>
</svg>
